<?xml version="1.0" encoding="utf-8"?>
<!-- Generator: Adobe Illustrator 16.0.3, SVG Export Plug-In . SVG Version: 6.00 Build 0)  -->
<!DOCTYPE svg PUBLIC "-//W3C//DTD SVG 1.1//EN" "http://www.w3.org/Graphics/SVG/1.1/DTD/svg11.dtd">
<svg version="1.1" id="Capa_1" xmlns="http://www.w3.org/2000/svg" xmlns:xlink="http://www.w3.org/1999/xlink" x="0px" y="0px"
	 width="252.797px" height="113.15px" viewBox="0 0 252.797 113.15" enable-background="new 0 0 252.797 113.15"
	 xml:space="preserve">
<g>
	<path fill-rule="evenodd" clip-rule="evenodd" d="M11.61,37.482c0.386,0.004,0.421,0.352,0.542,0.588
		c1.62,3.192,3.253,6.379,4.837,9.59c3.868,7.844,7.732,15.691,11.555,23.555c1.386,2.853,2.648,5.764,3.968,8.647
		c0.209,0.458,0.417,0.918,0.643,1.369c0.103,0.205,0.249,0.39,0.443,0.686c0.236-0.38,0.444-0.641,0.575-0.937
		c0.612-1.384,1.224-2.769,1.797-4.169c3.955-9.647,7.899-19.299,11.847-28.949c0.117-0.286,0.239-0.569,0.385-0.913
		c2.169,0.078,4.325,0.156,6.449,0.233c0.049,0.042,0.068,0.055,0.083,0.072c0.016,0.018,0.036,0.038,0.04,0.06
		c0.018,0.142,0.045,0.285,0.044,0.427c-0.08,20.099-0.163,40.199-0.249,60.299c0,0.032-0.048,0.065-0.082,0.109
		c-0.429-0.631-0.803-1.302-1.291-1.877c-1.12-1.319-2.291-2.594-3.451-3.878c-0.322-0.354-0.66-0.705-1.031-1.006
		c-0.453-0.369-0.579-0.812-0.588-1.381c-0.102-6.297-0.229-12.594-0.346-18.892c-0.088-4.735-0.17-9.469-0.262-14.205
		c-0.004-0.251-0.067-0.5-0.101-0.736c-0.473-0.092-0.565,0.219-0.68,0.468c-0.312,0.676-0.623,1.354-0.906,2.042
		c-2.236,5.444-4.477,10.887-6.693,16.34c-0.94,2.313-1.836,4.646-2.718,6.983c-0.226,0.599-0.583,0.86-1.211,0.924
		c-1.278,0.132-2.545,0.076-3.812-0.08c-0.562-0.068-0.922-0.341-1.165-0.908c-3.601-8.415-7.226-16.82-10.853-25.226
		c-0.143-0.33-0.208-0.733-0.707-1.021c-0.099,8.916,0.02,17.721,0.014,26.511c-0.611,0.161-4.886,0.213-7.077,0.098
		C11.61,74.032,11.61,55.756,11.61,37.482z"/>
	<path fill-rule="evenodd" clip-rule="evenodd" d="M237.981,84.949c-0.041,0.108-0.111,0.215-0.119,0.325
		c-0.332,4.397-3.699,7.364-7.133,8.324c-2.148,0.603-4.322,0.584-6.502,0.241c-1.861-0.294-3.639-0.877-5.354-1.657
		c-0.174-0.08-0.346-0.164-0.516-0.252c-0.039-0.021-0.064-0.068-0.098-0.104c0.521-2.997,1.043-5.993,1.574-9.038
		c0.342-0.057,0.686-0.115,1.076-0.183c0.359,1.33,0.705,2.599,1.047,3.869c0.295,1.09,0.594,2.178,0.871,3.271
		c0.09,0.359,0.254,0.584,0.621,0.707c1.939,0.645,3.908,0.811,5.887,0.272c2.291-0.624,3.574-2.337,3.598-4.713
		c0.006-0.524-0.049-1.056-0.125-1.574c-0.186-1.25-0.787-2.283-1.818-2.998c-0.764-0.531-1.59-0.988-2.432-1.387
		c-1.105-0.524-2.273-0.92-3.377-1.445c-0.994-0.475-1.979-0.992-2.898-1.595c-1.844-1.204-2.904-2.961-3.355-5.1
		c-0.396-1.888-0.406-3.782,0.074-5.646c0.926-3.594,3.297-5.761,6.836-6.704c1.744-0.464,3.525-0.426,5.301-0.272
		c1.779,0.153,3.512,0.543,5.174,1.21c0.197,0.079,0.387,0.178,0.594,0.272c-0.486,2.864-0.967,5.699-1.455,8.583
		c-0.307,0.075-0.629,0.153-1.006,0.245c-0.076-0.187-0.162-0.351-0.209-0.524c-0.52-1.9-1.047-3.797-1.531-5.703
		c-0.111-0.438-0.326-0.646-0.742-0.749c-1.605-0.4-3.223-0.501-4.855-0.195c-0.236,0.044-0.471,0.103-0.699,0.176
		c-2.514,0.796-3.771,2.841-3.389,5.455c0.215,1.468,0.891,2.64,2.166,3.404c0.844,0.506,1.721,0.959,2.609,1.374
		c1.176,0.549,2.387,1.02,3.566,1.556c1.363,0.617,2.639,1.382,3.783,2.354c1.324,1.123,2.23,2.503,2.613,4.209
		c0.082,0.366,0.148,0.736,0.223,1.105C237.981,83.025,237.981,83.988,237.981,84.949z"/>
	<path fill-rule="evenodd" clip-rule="evenodd" d="M224.454,30.497c-0.023,0.114-0.035,0.139-0.031,0.161
		c0.184,1.073,0.145,1.167-0.869,1.635c-0.873,0.401-1.762,0.769-2.641,1.155c-0.26,0.115-0.514,0.246-0.771,0.37
		c0.225,0.427,0.451,0.805,0.619,1.206c0.049,0.115-0.016,0.361-0.113,0.439c-0.33,0.265-0.674,0.548-1.063,0.695
		c-0.305,0.115-0.477,0.264-0.609,0.54c-0.131,0.276-0.332,0.521-0.461,0.798c-0.24,0.518-0.52,1.033-0.658,1.582
		c-0.332,1.324-0.895,2.527-1.699,3.62c-1.068,1.449-2.273,2.739-4.02,3.384c-0.086,0.031-0.158,0.101-0.264,0.172
		c0.789,1.43,1.826,2.646,2.969,3.881c0.361-0.222,0.725-0.442,1.082-0.668c0.279-0.177,0.568-0.294,0.863-0.057
		c0.275,0.222,0.34,0.542,0.217,0.851c-0.162,0.41-0.387,0.795-0.668,1.356c0.314-0.292,0.51-0.48,0.711-0.661
		c0.426-0.384,0.77-0.449,1.09-0.21c0.379,0.282,0.457,0.651,0.209,1.149c-0.146,0.296-0.332,0.573-0.537,0.917
		c0.332-0.075,0.617-0.156,0.908-0.2c0.592-0.09,0.826,0.021,1.012,0.443c0.184,0.414,0.107,0.69-0.299,1.073
		c-0.053,0.049-0.109,0.094-0.193,0.167c0.012,0.072,0.021,0.162,0.039,0.25c0.094,0.477,0.012,0.726-0.313,0.936
		c-0.4,0.258-0.879,0.261-1.213,0.016c-0.27-0.197-0.553-0.374-0.816-0.579c-0.146-0.116-0.359-0.26-0.377-0.411
		c-0.084-0.725-0.66-1.108-1.082-1.567c-1.525-1.664-3.1-3.285-4.664-4.913c-0.281-0.293-0.604-0.547-0.961-0.865
		c-1.283,0.805-2.67,1.357-4.301,1.468c0.141,0.177,0.203,0.301,0.305,0.378c0.656,0.503,1.096,1.2,1.648,1.791
		c0.717,0.768,1.309,1.714,2.424,2.05c0.525,0.159,0.764,0.606,0.646,0.965c-0.158,0.489-0.66,0.727-1.238,0.494
		c-0.396-0.162-0.625-0.053-0.865,0.241c-0.316,0.393-0.645,0.777-0.99,1.145c-0.52,0.55-1.057,0.646-1.443,0.287
		c-0.438-0.406-0.414-1.022,0.059-1.601c0.045-0.053,0.074-0.116,0.094-0.146c-0.477-0.452-0.953-0.873-1.391-1.33
		c-0.27-0.281-0.236-1.134,0.02-1.429c0.207-0.236,0.455-0.353,0.768-0.186c0.121,0.064,0.246,0.119,0.424,0.205
		c-0.332-0.61-1.494-1.726-2.152-2.096c-1.25-0.705-1.25-0.707-2.703-0.433c-0.9,0.168-1.783,0.039-2.631-0.232
		c-1.232-0.395-2.445-0.859-3.66-1.313c-1.393-0.521-2.592-1.335-3.645-2.392c-1.582-1.586-3.113-3.209-4.26-5.152
		c-0.844-1.426-1.674-2.858-2.508-4.29c-0.047-0.083-0.098-0.17-0.117-0.262c-0.287-1.341-1.131-2.363-1.984-3.361
		c-0.473-0.555-1.162-0.812-1.885-0.967c-0.98-0.212-1.99-0.333-2.893-0.827c-0.404-0.221-0.561-0.5-0.506-0.935
		c0.047-0.369,0.244-0.537,0.668-0.626c1.057-0.222,2.105-0.483,3.195-0.493c0.086,0,0.172-0.051,0.332-0.101
		c-0.264-0.436-0.604-0.724-0.938-1.019c-0.143-0.125-0.34-0.247-0.389-0.407c-0.162-0.534-0.586-0.709-1.033-0.908
		c-0.898-0.398-1.004-1.327-0.25-1.958c0.201-0.169,0.408-0.254,0.658-0.146c0.461,0.199,0.939,0.37,1.369,0.619
		c0.453,0.263,0.898,0.408,1.434,0.359c0.547-0.051,1.107,0.031,1.652-0.035c0.662-0.08,1.334-0.189,1.961-0.405
		c1.086-0.375,2.137-0.852,3.213-1.259c0.209-0.079,0.475-0.082,0.697-0.041c0.682,0.127,1.354,0.311,2.035,0.442
		c1.287,0.247,2.523,0.6,3.512,1.517c1.762-1.13,3.324-2.443,4.879-3.766c2.453-2.086,4.898-4.182,7.355-6.264
		c2.516-2.132,5.211-4.017,7.98-5.807c1.246-0.807,2.426-1.723,3.617-2.613c0.748-0.558,1.465-0.335,1.73,0.579
		c0.035,0.115,0.074,0.229,0.105,0.345c0.137,0.525,0.088,0.634-0.359,0.964c-0.963,0.708-1.725,1.615-2.457,2.567
		c0.662-0.414,1.305-0.863,1.992-1.234c1.287-0.697,2.578-1.393,3.906-2.003c0.689-0.316,1.465-0.438,2.197-0.667
		c0.492-0.153,0.9-0.082,1.219,0.366c0.055,0.581-0.166,1.02-0.598,1.476c-0.787,0.831-1.459,1.773-2.287,2.805
		c0.693-0.224,1.227-0.402,1.766-0.564c0.309-0.093,0.617-0.113,0.869,0.155c0.348,0.37,0.318,1.205-0.064,1.558
		c-0.957,0.881-1.975,1.684-3.086,2.364c-0.178,0.109-0.34,0.241-0.51,0.363c0.012,0.048,0.023,0.097,0.037,0.146
		c0.211-0.032,0.422-0.062,0.633-0.095c0.912-0.146,1.473,0.319,1.414,1.226c-0.012,0.206-0.186,0.45-0.357,0.588
		c-0.824,0.659-1.646,1.323-2.518,1.916c-0.889,0.605-1.832,1.129-2.721,1.789c0.115-0.017,0.234-0.021,0.344-0.053
		c0.551-0.166,1.098-0.348,1.65-0.507c0.574-0.165,0.906-0.083,1.09,0.242c0.26,0.456,0.191,1.152-0.215,1.452
		c-0.541,0.396-1.104,0.776-1.699,1.076c-0.857,0.43-1.773,0.742-2.627,1.175c-1.283,0.649-2.539,1.355-3.801,2.047
		c-0.842,0.461-1.676,0.937-2.514,1.409c-0.096,0.055-0.184,0.127-0.248,0.293c0.225-0.01,0.455,0,0.676-0.034
		c0.734-0.113,1.463-0.269,2.199-0.359c0.736-0.09,1.479-0.128,2.217-0.175c0.465-0.03,0.906-0.091,1.24-0.472
		c0.074-0.085,0.199-0.172,0.303-0.177c1.184-0.053,2.178-0.729,3.299-0.981c0.678-0.152,1.342-0.364,2.016-0.53
		c0.367-0.091,0.732,0.115,0.877,0.452c0.174,0.403,0.102,0.672-0.275,0.928c-0.275,0.186-0.564,0.352-0.795,0.656
		c0.26-0.079,0.529-0.135,0.777-0.242c0.85-0.364,1.746-0.513,2.654-0.607c0.262-0.027,0.531-0.03,0.791,0.002
		c0.414,0.052,0.738,0.276,0.84,0.689c0.102,0.411-0.064,0.757-0.43,0.986c-0.629,0.396-1.256,0.798-1.896,1.175
		C225.758,29.786,225.1,30.135,224.454,30.497z M211.159,31.598c-0.32,0.062-0.639,0.125-0.959,0.187
		C210.549,31.857,210.899,31.924,211.159,31.598c0.492,0.206,0.988,0.119,1.482,0.022c0.924-0.12,1.203-0.106,1.508,0.073
		c-0.031,0.034-0.057,0.092-0.092,0.098c-0.186,0.032-0.377,0.026-0.553,0.081c-0.135,0.042-0.25,0.155-0.379,0.229
		c-0.324-0.034-0.646-0.067-0.971-0.1c-0.002,0.032-0.004,0.064-0.006,0.096c0.326,0,0.65,0,0.975,0
		c0.668-0.141,1.342-0.217,2.102-0.258c-0.418,0.422-0.748,0.755-1.076,1.087c-0.338,0.02-0.674,0.039-1.012,0.058
		c-0.381,0.04-0.766,0.062-1.143,0.123c-1.652,0.269-3.309,0.517-4.951,0.841c-0.654,0.13-1.273,0.44-2.043,0.717
		c0.215,0.058,0.27,0.092,0.307,0.079c1.01-0.367,2.141-0.153,3.121-0.663c0.076-0.04,0.193-0.054,0.273-0.025
		c0.48,0.178,0.879,0.008,1.285-0.242c0.197-0.123,0.443-0.182,0.676-0.232c0.703-0.153,1.408-0.282,2.111-0.434
		c0.125-0.027,0.234-0.118,0.352-0.177c0.342-0.016,0.682-0.031,1.023-0.046c0.281-0.056,0.561-0.133,0.844-0.163
		c1.232-0.132,2.453-0.471,3.713-0.229c0.207,0.04,0.443-0.077,0.729-0.133c-0.361-0.625-0.521-1.169,0.213-1.674
		c-0.713,0.082-1.281,0.158-1.854,0.212c-1.289,0.122-2.58,0.221-3.867,0.355c-0.436,0.045-0.902,0.02-1.275,0.334
		C212.153,31.619,211.655,31.608,211.159,31.598z M203.522,33.512c-0.809,0.128-1.619,0.258-2.428,0.387
		c0.012,0.06,0.021,0.121,0.033,0.181c0.742-0.122,1.486-0.24,2.229-0.373C203.42,33.696,203.465,33.579,203.522,33.512
		c0.66,0.131,1.311,0.121,1.934-0.229C204.811,33.36,204.167,33.436,203.522,33.512z M217.653,20.765
		c-0.068-0.001-0.15-0.027-0.207,0c-1.439,0.66-2.875,1.325-4.309,1.994c-0.025,0.012-0.029,0.069-0.055,0.134
		c0.18,0.066,0.352,0.13,0.549,0.202c-0.133,0.162-0.256,0.312-0.377,0.461c0.426-0.097,0.859-0.201,1.135-0.467
		c0.703-0.674,1.602-1.044,2.346-1.646c0.295-0.239,0.602-0.462,0.904-0.693c0.158-0.092,0.316-0.185,0.475-0.278
		c-0.033-0.04-0.066-0.08-0.098-0.12C217.895,20.489,217.774,20.627,217.653,20.765z M215.532,30.931
		c0.715-0.08,1.43-0.169,2.145-0.239c0.596-0.058,1.197-0.145,1.791-0.127c0.732,0.021,1.908-0.276,2.578-0.754
		c-0.518-0.107-1.955,0.039-2.568,0.278c-0.34,0.132-0.664,0.278-1.033,0.087c-0.096-0.05-0.236-0.035-0.354-0.021
		c-0.668,0.081-1.332,0.184-2,0.251c-0.352,0.035-0.518,0.206-0.553,0.535c-0.281-0.225-0.563-0.341-0.969,0.092
		C214.979,30.989,215.256,30.96,215.532,30.931z M195.481,32.211c0.096-0.492,0.025-1.026,0.441-1.263
		c-0.107-0.355-0.191-0.633-0.279-0.91c-0.027-0.091-0.037-0.214-0.102-0.261c-0.346-0.258-0.258-0.573-0.088-0.929
		c-0.537-0.369-1.063-0.704-1.561-1.076c-0.381-0.286-0.803-0.563-1.078-0.938c-0.805-1.094-1.918-1.63-3.188-1.917
		c-0.199-0.045-0.436-0.03-0.633,0.031c-0.432,0.133-0.848,0.314-1.27,0.473c-0.246,0.093-0.619,0.11-0.723,0.286
		c-0.367,0.628-0.943,0.706-1.566,0.865c-0.752,0.192-1.449,0.59-2.209,0.915c0.098,0.104,0.193,0.206,0.289,0.308
		c0.262,0.279,0.561,0.533,0.777,0.844c0.443,0.634,0.146,1.193-0.625,1.225c-0.191,0.008-0.383-0.042-0.574-0.043
		c-0.146-0.001-0.291,0.032-0.393,0.044c1.104,1.239,2.184,2.456,3.268,3.667c0.303,0.335,0.377,0.696,0.266,1.132
		c-0.057,0.217-0.086,0.491-0.002,0.685c0.592,1.362,0.99,2.817,1.822,4.065c0.613,0.916,1.225,1.847,1.963,2.658
		c0.852,0.936,1.848,1.741,2.768,2.617c0.533,0.506,1.135,0.881,1.824,1.128c0.746,0.266,1.498,0.522,2.227,0.829
		c1.797,0.755,3.643,1.021,5.568,0.67c0.33-0.06,0.66-0.141,0.992-0.155c0.621-0.027,1.244-0.017,1.869-0.014
		c1.186,0.007,2.27-0.33,3.277-0.95c0.51-0.314,1.02-0.631,1.557-0.895c0.857-0.423,1.748-0.783,2.605-1.21
		c0.314-0.157,0.598-0.403,0.855-0.651c2.014-1.941,2.891-4.466,3.631-7.139c-0.957,0.134-1.877,0.268-2.797,0.393
		c-1.713,0.231-3.43,0.439-5.139,0.694c-0.824,0.123-1.707-0.263-2.477,0.296c-0.014,0.01-0.049,0.002-0.07-0.006
		c-0.447-0.178-0.857,0.351-1.322,0.077c-0.039-0.024-0.168,0.143-0.27,0.171c-0.359,0.099-0.758,0.311-1.074,0.226
		c-0.375-0.103-0.705-0.041-1.055-0.024c-0.254,0.012-0.506,0.052-0.76,0.08c-0.01-0.052-0.021-0.104-0.031-0.155
		c0.535-0.119,1.07-0.237,1.66-0.368c-0.602-0.167-1.244,0.246-1.607-0.266c-0.223,0.138-0.385,0.317-0.57,0.343
		c-1.805,0.252-3.611,0.479-5.42,0.711c-0.068,0.009-0.16,0.033-0.211,0.002c-0.154-0.093-0.385-0.19-0.412-0.323
		c-0.031-0.139,0.1-0.402,0.23-0.466c0.271-0.132,0.588-0.19,0.891-0.239c0.352-0.056,0.711-0.07,1.082-0.104
		c-0.057-0.14-0.146-0.262-0.117-0.306c0.129-0.194,0.256-0.459,0.445-0.528c0.51-0.186,1.051-0.284,1.604-0.422
		c0.004-0.253,0.189-0.334,0.457-0.381c0.781-0.136,1.559-0.302,2.334-0.456c-0.271-0.071-0.535-0.101-0.791-0.065
		c-1.045,0.147-2.092,0.298-3.133,0.479c-0.488,0.084-0.945,0.08-1.373-0.132c-0.338-1.076,0.105-1.191,0.895-1.231
		c0.295-0.016,0.588-0.022,1.033-0.039c-0.85-0.393-0.887-0.479-0.744-1.319c0.027-0.16,0.006-0.329,0.006-0.472
		c-0.537-0.482-1.072-0.507-1.652-0.126C196.366,32.631,195.917,32.72,195.481,32.211z M223.135,14.076
		c-0.063-0.073-0.125-0.146-0.186-0.221c-0.775,0.456-1.566,0.886-2.32,1.373c-1.129,0.729-2.232,1.499-3.346,2.253
		c-0.455,0.309-0.945,0.457-1.5,0.388c-0.301-0.037-0.482-0.197-0.551-0.484c-0.107-0.444,0.164-0.986,0.559-1.217
		c0.559-0.325,1.111-0.665,1.65-1.02c0.602-0.396,1.17-0.846,1.781-1.224c2.102-1.297,3.945-2.892,5.576-4.742
		c0.094-0.108,0.168-0.235,0.348-0.489c-0.387,0.144-0.609,0.222-0.83,0.308c-2.977,1.175-5.611,2.938-8.184,4.801
		c-1.848,1.338-3.664,2.719-5.479,4.104c-1.68,1.282-3.342,2.585-5.002,3.895c-1.68,1.324-3.342,2.669-5.016,3.998
		c-0.461,0.365-0.943,0.702-1.504,1.118c0.197,0,0.275,0.021,0.334-0.003c0.889-0.36,1.789-0.691,2.654-1.099
		c1.148-0.542,2.273-1.139,3.402-1.722c2.818-1.452,5.631-2.914,8.453-4.362c1.021-0.524,2.09-0.966,3.086-1.536
		c2.025-1.16,3.857-2.611,5.736-3.987C222.893,14.139,223.022,14.119,223.135,14.076z M216.032,33.714
		c-0.166,0.011-0.334,0.011-0.498,0.035c-1.115,0.164-2.23,0.344-3.348,0.498c-0.879,0.121-1.77,0.329-2.641,0.278
		c-0.711-0.042-1.367,0.061-2.043,0.184c-0.871,0.158-1.74,0.318-2.613,0.468c-1.133,0.196-2.268,0.379-3.402,0.576
		c-0.193,0.034-0.379,0.111-0.568,0.168c0.213,0.075,0.402,0.068,0.588,0.036c0.793-0.136,1.58-0.269,2.389-0.338
		c2.104-0.178,4.199-0.458,6.297-0.713c1.451-0.178,2.898-0.385,4.35-0.572c0.15-0.019,0.309,0.021,0.463,0.032
		c-0.113,0.206-0.262,0.296-0.418,0.369c-0.127,0.058-0.322,0.054-0.385,0.146c-0.264,0.397-0.666,0.418-1.074,0.47
		c-0.977,0.124-1.955,0.246-2.928,0.4c-1.186,0.187-2.363,0.41-3.574,0.383c-0.377-0.008-0.758,0.134-1.137,0.208
		c3.572-0.017,7.105-0.314,10.623-1.068C215.864,34.751,215.52,34.273,216.032,33.714z M215.188,11.589
		c1.361-0.507,2.691-1.674,3.076-2.625C217.118,9.742,216.018,10.512,215.188,11.589z M221.792,18.004
		c-1.201,0.348-2.74,1.35-3.041,1.985C219.793,19.374,220.858,18.79,221.792,18.004z M214.241,31.074
		c-0.01-0.05-0.02-0.101-0.029-0.15c-2.096,0.269-4.191,0.539-6.285,0.808c0.006,0.048,0.012,0.097,0.018,0.146
		C210.043,31.609,212.141,31.341,214.241,31.074z M206.504,37.337c0.441-0.106,0.883-0.196,1.314-0.321
		c0.408-0.117,0.883,0.017,1.227-0.411c-0.951,0.102-1.9,0.203-2.883,0.308C206.297,37.081,206.393,37.2,206.504,37.337z
		 M205.715,24.895c0.041,0.053,0.08,0.106,0.121,0.159c0.717-0.37,1.432-0.739,2.146-1.107c-0.025-0.052-0.053-0.103-0.08-0.154
		C207.174,24.16,206.446,24.527,205.715,24.895z M212.551,21.927c0.027,0.046,0.053,0.093,0.082,0.14
		c0.736-0.382,1.475-0.764,2.211-1.146c-0.027-0.055-0.057-0.11-0.086-0.166C213.965,21.033,213.288,21.54,212.551,21.927z
		 M203.377,36.769c0.197-0.042,0.393-0.089,0.592-0.125c0.201-0.036,0.404-0.061,0.605-0.09
		C204.168,36.59,203.731,36.332,203.377,36.769z M205.229,25.354c-0.014-0.048-0.029-0.097-0.043-0.145
		c-0.291,0.139-0.584,0.278-0.875,0.417c0.02,0.041,0.037,0.082,0.057,0.122C204.653,25.617,204.942,25.485,205.229,25.354z
		 M198.803,37.227c0.008,0.028,0.014,0.057,0.021,0.085c0.211-0.051,0.422-0.103,0.635-0.154c-0.008-0.034-0.018-0.068-0.025-0.102
		C199.223,37.113,199.014,37.17,198.803,37.227z M207.293,52.769c-0.074,0.146-0.135,0.238-0.166,0.34
		c-0.008,0.03,0.105,0.129,0.113,0.124c0.088-0.06,0.186-0.123,0.238-0.21C207.495,52.993,207.385,52.89,207.293,52.769z
		 M212.221,29.004c0.412,0.102,0.412,0.102,0.736-0.141C212.643,28.924,212.432,28.964,212.221,29.004z M208.395,32.892
		c0-0.05-0.002-0.102-0.002-0.152c-0.145,0.022-0.291,0.044-0.436,0.067c0.008,0.047,0.018,0.094,0.025,0.141
		C208.12,32.929,208.256,32.911,208.395,32.892z"/>
	<path fill-rule="evenodd" clip-rule="evenodd" d="M68.372,82.383c0.206,0.705,0.581,1.258,1.006,1.777
		c1.183,1.447,2.754,2.293,4.506,2.844c1.812,0.57,3.632,0.606,5.471,0.125c3.576-0.938,6.438-2.936,8.714-5.816
		c0.224-0.283,0.429-0.581,0.661-0.855c0.287-0.341,0.45-0.354,0.763-0.021c0.494,0.525,0.966,1.07,1.44,1.615
		c0.521,0.598,1.009,1.229,1.558,1.798c0.431,0.446,0.41,0.846,0.125,1.354c-1.506,2.679-3.544,4.835-6.204,6.388
		c-2.466,1.441-5.148,2.227-7.963,2.595c-2.458,0.321-4.9,0.242-7.283-0.487c-4.448-1.362-7.682-4.187-9.72-8.346
		c-1.603-3.269-2.455-6.739-2.197-10.392c0.356-5.063,2.319-9.396,6.268-12.688c2.417-2.015,5.283-2.993,8.394-3.302
		c6.713-0.665,13.053,3.952,15.312,9.906c0.389,1.026,0.705,2.098,0.908,3.177c0.285,1.524-0.482,2.901-1.93,3.495
		c-1.666,0.683-3.355,1.314-5.06,1.892c-4.595,1.56-9.203,3.078-13.805,4.612C69.019,82.158,68.705,82.269,68.372,82.383z
		 M66.417,74.164c0.027,0.334,0.034,0.673,0.085,1.005c0.205,1.344,0.429,1.489,1.759,1.16c4.114-1.021,8.08-2.479,11.994-4.086
		c0.266-0.11,0.524-0.242,0.771-0.392c0.483-0.295,0.516-0.399,0.352-0.946c-0.049-0.16-0.109-0.317-0.172-0.473
		c-0.828-2.053-2.406-3.312-4.391-4.127c-1.885-0.775-3.782-0.74-5.587,0.173C68.1,68.059,66.735,70.791,66.417,74.164z"/>
	<path fill-rule="evenodd" clip-rule="evenodd" d="M119.656,47.788c2.68,0,5.263,0,7.917,0c0,3.147,0,6.26,0,9.456
		c1.711,0,3.355,0,5.102,0c0.015,2.3,0.005,4.515,0.008,6.813c-1.721,0-3.365,0-5.047,0c0,7.185,0,14.288,0,21.467
		c1.733,0,3.452,0,5.146,0c0.17,0.584,0.201,5.934,0.051,6.776c-0.221,0.01-0.455,0.029-0.688,0.029
		c-2.596,0.003-5.191,0.003-7.787,0c-0.336,0-0.674-0.004-1.009-0.027c-2.175-0.155-3.484-1.45-3.656-3.626
		c-0.034-0.431-0.03-0.865-0.03-1.297c-0.001-7.45-0.001-14.9-0.001-22.352c0-0.285,0-0.571,0-0.946
		c-1.249-0.073-2.463,0.012-3.702-0.052c0-2.264,0-4.464,0-6.738c1.22,0,2.411,0,3.696,0
		C119.656,54.086,119.656,50.955,119.656,47.788z"/>
	<path fill-rule="evenodd" clip-rule="evenodd" d="M99.39,94.453c-0.601,0-1.202,0.019-1.802-0.005
		c-0.715-0.027-0.984-0.275-1.13-0.969c-0.021-0.094-0.029-0.191-0.037-0.287c-0.147-1.698-0.293-3.397-0.438-5.096
		c-0.011-0.119-0.014-0.24-0.014-0.359c0.002-0.615,0.17-0.861,0.773-0.902c0.596-0.041,1.203-0.019,1.796,0.047
		c1.626,0.175,3.218,0.013,4.768-0.476c0.564-0.178,1.113-0.459,1.607-0.787c1.511-1.002,2.202-3.582,0.521-5.304
		c-0.68-0.698-1.477-1.223-2.317-1.699c-1.609-0.91-3.232-1.8-4.819-2.751c-2.236-1.34-3.582-3.348-3.977-5.898
		c-0.749-4.847,0.99-9.475,6.164-12.021c2.423-1.193,5.011-1.615,7.685-1.639c0.53-0.005,0.891,0.209,1.032,0.714
		c0.514,1.848,1.04,3.695,1.506,5.557c0.178,0.71-0.008,0.906-0.743,1.009c-1.451,0.204-2.902,0.401-4.357,0.574
		c-0.81,0.096-1.528,0.391-2.198,0.837c-1.157,0.774-1.797,2.671-0.492,4.095c0.676,0.736,1.495,1.272,2.342,1.781
		c1.627,0.978,3.267,1.933,4.857,2.967c1.51,0.982,2.563,2.382,3.26,4.037c1.51,3.592,1.309,9.301-3.03,12.938
		c-2.413,2.021-5.185,3.173-8.298,3.519c-0.882,0.099-1.772,0.131-2.657,0.195C99.392,94.503,99.391,94.478,99.39,94.453z"/>
	<path fill-rule="evenodd" clip-rule="evenodd" d="M161.553,89.529c4.678,0,9.191,0,13.744,0c0.146-0.235,0.303-0.475,0.451-0.72
		c1.127-1.873,2.299-3.723,3.357-5.635c0.447-0.81,1.02-1.063,1.949-0.956c-0.035,0.415-0.07,0.837-0.105,1.257
		c-0.221,2.636-0.449,5.269-0.654,7.903c-0.082,1.07-0.057,1.068-1.107,1.062c-5.914-0.038-11.828-0.089-17.74-0.102
		c-2.74-0.006-5.48,0.07-8.221,0.094c-0.289,0.002-0.648,0.157-0.855-0.193c-0.236-0.402,0.146-0.617,0.318-0.87
		c6.18-9.139,12.369-18.27,18.555-27.404c0.186-0.272,0.359-0.552,0.596-0.916c-4.543,0-8.973,0-13.494,0
		c-0.734,2.256-1.482,4.553-2.242,6.888c-0.432,0.083-0.852,0.163-1.375,0.263c-0.285-1.688-0.578-3.355-0.848-5.026
		c-0.264-1.645-0.674-3.266-0.93-5.014c0.607,0,1.082-0.001,1.557,0.001c6.947,0.023,13.895,0.056,20.842,0.07
		c1.537,0.003,3.076-0.048,4.613-0.072c0.17-0.002,0.34-0.021,0.504,0.007c0.307,0.052,0.42,0.304,0.27,0.583
		c-0.09,0.168-0.211,0.32-0.318,0.481c-6.1,9.133-12.199,18.267-18.299,27.401C161.95,88.885,161.793,89.148,161.553,89.529z"/>
	<path fill-rule="evenodd" clip-rule="evenodd" d="M199.303,87.665c-2.82-0.077-5.523-0.564-7.98-1.978
		c-4.104-2.363-6.467-5.911-7.037-10.63c-0.25-2.074-0.168-4.134,0.391-6.146c1.193-4.291,3.926-7.24,8.092-8.729
		c3.883-1.387,7.867-1.384,11.719,0.105c5.041,1.952,7.961,5.696,8.693,11.08c0.33,2.431,0.262,4.86-0.512,7.203
		c-1.576,4.773-4.906,7.636-9.797,8.668C201.706,87.485,200.495,87.528,199.303,87.665z M198.827,81.48
		c0.652-0.038,1.59-0.063,2.521-0.156c2.07-0.209,4.07-0.678,5.902-1.718c2.15-1.222,3.445-3.021,3.684-5.513
		c0.289-3.009-0.809-5.577-3.602-7.12c-0.91-0.502-1.883-0.847-2.896-1.068c-3.063-0.673-6.148-0.707-9.236-0.236
		c-1.768,0.27-3.459,0.803-5.023,1.694c-2.178,1.243-3.465,3.077-3.643,5.606c-0.203,2.85,0.787,5.145,3.311,6.626
		c0.738,0.435,1.553,0.764,2.367,1.032C194.264,81.304,196.401,81.417,198.827,81.48z"/>
	<path fill-rule="evenodd" clip-rule="evenodd" d="M139.043,57.31c2.578,0,5.115,0,7.703,0c0,11.651,0,23.275,0,34.9
		c-0.486,0.148-6.572,0.199-7.703,0.056C139.043,80.629,139.043,68.989,139.043,57.31z"/>
	<path fill-rule="evenodd" clip-rule="evenodd" d="M184.19,92.688c0-0.98,0-1.891,0-2.853c9.703,0,19.381,0,29.1,0
		c0,0.945,0,1.872,0,2.853C203.606,92.688,193.932,92.688,184.19,92.688z"/>
	<path fill-rule="evenodd" clip-rule="evenodd" d="M138.942,52.192c0-2.693,0-5.353,0-8.064c2.641,0,5.242,0,7.887,0
		c0,2.688,0,5.35,0,8.011C146.338,52.3,140.034,52.351,138.942,52.192z"/>
	<path fill-rule="evenodd" clip-rule="evenodd" fill="#FFFFFF" d="M198.803,37.227c0.211-0.057,0.42-0.114,0.631-0.17
		c0.008,0.034,0.018,0.068,0.025,0.102c-0.213,0.051-0.424,0.103-0.635,0.154C198.817,37.284,198.811,37.255,198.803,37.227z"/>
	<path fill-rule="evenodd" clip-rule="evenodd" fill="#FFFFFF" d="M213.124,32.098c-0.324,0-0.648,0-0.975,0
		c0.002-0.032,0.004-0.064,0.006-0.096c0.324,0.033,0.646,0.066,0.973,0.103C213.131,32.108,213.124,32.098,213.124,32.098z"/>
	<path fill-rule="evenodd" clip-rule="evenodd" fill="#FFFFFF" d="M207.293,52.769c0.092,0.121,0.201,0.224,0.186,0.254
		c-0.053,0.087-0.15,0.15-0.238,0.21c-0.008,0.005-0.121-0.094-0.113-0.124C207.159,53.007,207.219,52.916,207.293,52.769z"/>
	<path fill-rule="evenodd" clip-rule="evenodd" fill="#FFFFFF" d="M217.653,20.765c0.121-0.137,0.242-0.276,0.363-0.413
		c0.031,0.04,0.064,0.08,0.098,0.12c-0.158,0.093-0.316,0.186-0.475,0.278L217.653,20.765z"/>
	<path fill-rule="evenodd" clip-rule="evenodd" fill="#FFFFFF" d="M213.137,32.985c0.338-0.019,0.674-0.039,1.012-0.058l-0.002,0
		c-0.34,0.015-0.68,0.03-1.021,0.045C213.124,32.972,213.137,32.985,213.137,32.985z"/>
	<path fill-rule="evenodd" clip-rule="evenodd" d="M188.227,29.821c-1.238-0.013-1.756-0.622-1.588-1.657
		c0.031-0.204-0.002-0.419-0.012-0.63c-0.02-0.404,0.139-0.702,0.512-0.748c0.76-0.093,1.525-0.212,2.289,0
		c0.416,0.116,0.732,0.355,0.939,0.73c0.262,0.475,0.191,0.926-0.201,1.304C189.581,29.39,188.885,29.735,188.227,29.821z"/>
	<path fill-rule="evenodd" clip-rule="evenodd" d="M204.038,40.95c0.148-0.051,0.295-0.128,0.449-0.147
		c1.994-0.249,3.992-0.48,5.986-0.736c0.807-0.104,1.604-0.28,2.41-0.373c0.455-0.053,0.939-0.179,1.41,0.11
		c-0.182,0.433-0.508,0.652-0.91,0.763c-0.252,0.07-0.518,0.106-0.777,0.131c-1.691,0.168-3.381,0.346-5.076,0.482
		c-0.52,0.042-1.049-0.041-1.574-0.058c-0.404-0.013-0.811-0.02-1.217-0.019c-0.23,0-0.461,0.021-0.693,0.032
		C204.043,41.074,204.04,41.012,204.038,40.95z"/>
	<path fill-rule="evenodd" clip-rule="evenodd" d="M204.817,39.085c0.07-0.046,0.135-0.122,0.209-0.135
		c3.27-0.561,6.553-1.032,9.949-1.414c-0.266,0.643-0.684,0.863-1.199,0.928c-0.951,0.118-1.904,0.217-2.855,0.329
		c-0.758,0.088-1.516,0.199-2.275,0.268c-0.281,0.025-0.57-0.047-0.854-0.07c-0.113-0.009-0.266-0.05-0.336,0.005
		c-0.365,0.291-0.742,0.227-1.152,0.131c-0.223-0.052-0.471,0.008-0.707,0.023c-0.25,0.016-0.498,0.038-0.748,0.057
		C204.838,39.166,204.829,39.125,204.817,39.085z"/>
	<path fill-rule="evenodd" clip-rule="evenodd" d="M211.924,42.605c-0.018,0.626-0.016,0.631-0.48,0.704
		c-0.189,0.028-0.383,0.032-0.574,0.045c-1.268,0.083-2.535,0.175-3.805,0.243c-0.273,0.015-0.555-0.057-0.832-0.079
		c-0.188-0.015-0.375-0.004-0.563-0.021c-0.146-0.013-0.291-0.05-0.523-0.092C205.772,43.077,211.09,42.471,211.924,42.605z"/>
	<path fill-rule="evenodd" clip-rule="evenodd" d="M203.936,39.157c-0.707,0.311-1.367,0.265-1.982,0.306
		c-1.471,0.098-2.924,0.5-4.416,0.292c1.246-0.391,2.549-0.385,3.912-0.582c-0.203-0.077-0.32-0.121-0.518-0.195
		c0.523-0.349,1.07-0.191,1.551-0.331C203.055,38.48,203.405,38.874,203.936,39.157z"/>
	<path fill-rule="evenodd" clip-rule="evenodd" d="M203.901,40.808c-0.535,0.069-1.09,0.379-1.605-0.149
		c-0.34,0.481-1.66,0.696-2.863,0.411c0.217-0.312,0.539-0.308,0.816-0.34c0.307-0.037,0.576-0.16,0.857-0.243
		c0.65-0.192,1.344-0.494,2.047-0.056c0.219,0.135,0.516,0.141,0.777,0.206C203.92,40.695,203.911,40.751,203.901,40.808z"/>
	<path fill-rule="evenodd" clip-rule="evenodd" d="M203.235,40.331c0.68-0.294,0.918-0.303,1.482-0.1
		C204.278,40.418,204.051,40.437,203.235,40.331z"/>
	<path fill-rule="evenodd" clip-rule="evenodd" d="M214.836,31.519c0.537-0.209,1.1-0.1,1.668-0.006
		c-0.111,0.024-0.223,0.061-0.336,0.069c-0.439,0.034-0.881,0.059-1.322,0.087C214.842,31.618,214.84,31.568,214.836,31.519z"/>
</g>
</svg>
